<?xml version="1.0" encoding="UTF-8" standalone="no"?>
<!-- Created with Inkscape (http://www.inkscape.org/) -->

<svg
   xmlns:dc="http://purl.org/dc/elements/1.1/"
   xmlns:cc="http://creativecommons.org/ns#"
   xmlns:rdf="http://www.w3.org/1999/02/22-rdf-syntax-ns#"
   xmlns:svg="http://www.w3.org/2000/svg"
   xmlns="http://www.w3.org/2000/svg"
   xmlns:sodipodi="http://sodipodi.sourceforge.net/DTD/sodipodi-0.dtd"
   xmlns:inkscape="http://www.inkscape.org/namespaces/inkscape"
   width="174.97639mm"
   height="195.17815mm"
   viewBox="0 0 619.9951 691.57611"
   id="svg4207"
   version="1.1"
   inkscape:version="0.91 r13725"
   sodipodi:docname="logo.svg">
  <defs
     id="defs4209" />
  <sodipodi:namedview
     id="base"
     pagecolor="#ffffff"
     bordercolor="#666666"
     borderopacity="1.0"
     inkscape:pageopacity="0.0"
     inkscape:pageshadow="2"
     inkscape:zoom="0.7"
     inkscape:cx="464.36111"
     inkscape:cy="417.45489"
     inkscape:document-units="px"
     inkscape:current-layer="layer1"
     showgrid="false"
     fit-margin-top="0"
     fit-margin-left="0"
     fit-margin-right="0"
     fit-margin-bottom="0"
     inkscape:window-width="1920"
     inkscape:window-height="1028"
     inkscape:window-x="0"
     inkscape:window-y="24"
     inkscape:window-maximized="1" />
  <metadata
     id="metadata4212">
    <rdf:RDF>
      <cc:Work
         rdf:about="">
        <dc:format>image/svg+xml</dc:format>
        <dc:type
           rdf:resource="http://purl.org/dc/dcmitype/StillImage" />
        <dc:title></dc:title>
      </cc:Work>
    </rdf:RDF>
  </metadata>
  <g
     inkscape:label="Layer 1"
     inkscape:groupmode="layer"
     id="layer1"
     transform="translate(-50.002467,-72.339314)">
    <path
       style="fill:#fff;fill-opacity:1"
       d="m 352.26077,763.73657 c -14.1227,-1.44402 -28.223,-6.99336 -39.8981,-15.7023 -3.6503,-2.72292 -11.3909,-10.241 -14.0976,-13.69237 -8.8885,-11.33378 -14.2659,-24.21683 -16.433,-39.36976 -0.6089,-4.25702 -0.5131,-16.2099 0.1651,-20.61487 2.7352,-17.765 10.3617,-32.93939 22.5535,-44.87459 4.1723,-4.08451 7.9293,-7.15091 12.2698,-10.0146 5.025,-3.31529 13.8384,-7.59947 17.2932,-8.40621 0.6752,-0.15765 1.4076,-0.43598 1.6275,-0.6184 0.3178,-0.26378 0.3997,-3.99913 0.3997,-18.23571 0,-15.55211 -0.061,-17.95476 -0.466,-18.29065 -0.2562,-0.21266 -2.8021,-0.84263 -5.6574,-1.39986 -27.5442,-5.37554 -49.7721,-16.03392 -71.6768,-34.36941 -27.7685,-23.24374 -47.2183,-57.24653 -53.3048,-93.18923 -1.5855,-9.363 -1.9376,-13.4065 -2.1053,-24.1798 -0.2081,-13.3674 0.5402,-22.1657 2.8732,-33.7804 1.5287,-7.6104 4.9665,-19.6019 6.8234,-23.8006 0.4005,-0.9055 0.6516,-1.8457 0.5582,-2.0893 -0.2492,-0.6492 -29.8489,-17.6409 -30.9559,-17.7701 -0.7844,-0.092 -1.4253,0.2807 -3.8811,2.254 -11.8358,9.5108 -26.3368,15.6432 -40.6716,17.1999 -3.8729,0.4205 -13.2139,0.4202 -17.3393,0 -17.9379,-1.83 -34.499899,-9.6955 -47.249399,-22.4396 -12.5246,-12.5199 -20.3255,-28.3954 -22.6293,-46.0531 -0.7245,-5.5528 -0.4901,-17.5579 0.4448,-22.7849 4.9195,-27.5037 22.9605,-49.8869 48.3987,-60.0474 9.524399,-3.8042 18.737399,-5.5361 29.449799,-5.5361 16.0447,0 30.3297,4.253 43.2376,12.873 5.1763,3.4568 8.0084,5.797 12.5621,10.38 13.5754,13.6629 21.3949,31.1327 22.6026,50.497 0.4363,6.9963 -0.4436,18.5443 -1.5809,20.7471 -0.2227,0.4313 -0.2518,0.8078 -0.075,0.9727 0.1585,0.1479 7.2403,4.2762 15.7373,9.1741 11.9168,6.8692 15.5754,8.844 16.0016,8.6373 0.304,-0.1474 1.9259,-1.8722 3.6043,-3.833 1.6785,-1.9607 5.2889,-5.8031 8.0233,-8.5387 34.072,-34.0874 81.305,-50.4329 129.7457,-44.8998 13.6924,1.564 30.1419,5.9134 43.2808,11.4441 17.4471,7.3441 33.1091,17.7986 47.8186,31.9195 4.143,3.9771 10.8666,11.4983 11.3844,12.7346 0.5082,1.2137 1.2166,1.8038 1.8661,1.5546 1.0001,-0.3838 31.27859,-17.9561 31.48512,-18.2727 0.11599,-0.1777 0.0957,-0.5398 -0.0452,-0.8048 -0.45969,-0.8648 -1.25103,-6.6975 -1.58076,-11.6512 -0.8682,-13.0431 1.73799,-26.3652 7.4803,-38.2371 2.71881,-5.6211 4.6777,-8.8664 8.06881,-13.368 18.93004,-25.129 51.14004,-36.6929 81.48127,-29.2529 32.24538,7.9068 55.27633,33.7279 59.69397,66.9258 0.60966,4.5816 0.60351,14.8599 -0.0119,19.5834 -2.26207,17.3665 -10.05472,33.2066 -22.45688,45.6479 -11.84218,11.8796 -26.93797,19.4922 -44.0891,22.2336 -5.05314,0.8077 -18.8028,0.8064 -23.65194,0 -14.62968,-2.4397 -28.16737,-8.6131 -38.62487,-17.6136 -1.1584,-0.997 -2.36544,-1.8127 -2.68233,-1.8127 -0.31691,0 -1.19634,0.3899 -1.95435,0.8665 -3.70671,2.3304 -27.18548,15.7169 -28.16078,16.056 -0.8797,0.3058 -1.1071,0.5419 -1.0694,1.1104 0.026,0.3971 0.8951,3.1632 1.9308,6.147 4.29851,12.3839 7.04016,25.5561 8.09088,38.8722 0.40835,5.1754 0.40553,19.3503 -0.005,24.6929 -1.21728,15.8447 -4.73642,31.0029 -10.56302,45.4983 -2.3028,5.7288 -8.1581,17.5007 -11.284,22.6858 -15.0699,24.99762 -36.0191,44.81665 -61.8422,58.50574 -13.1538,6.97298 -29.5975,12.64857 -44.5979,15.39307 -2.2787,0.41691 -4.2564,0.87454 -4.395,1.01689 -0.1386,0.14236 -0.3301,7.09427 -0.4256,15.44872 -0.096,8.35445 -0.2487,16.16641 -0.3403,17.3599 -0.239,3.11345 0,3.41484 3.7241,4.79341 11.4992,4.25112 19.4621,9.31733 28.1683,17.92122 14.5283,14.35755 22.5153,32.57735 23.3365,53.23491 0.8461,21.28273 -7.1434,42.13866 -21.9927,57.41051 -12.7968,13.16088 -28.6651,21.06517 -47.1557,23.48908 -3.305,0.43323 -13.9793,0.59723 -17.2312,0.26476 z m 15.2649,-48.10124 c 5.8139,-1.55441 9.9804,-3.92964 14.2233,-8.10826 4.5498,-4.48096 7.206,-9.1044 8.7266,-15.18991 0.9912,-3.96679 0.9161,-10.52392 -0.1674,-14.60677 -1.5126,-5.69984 -4.1108,-10.25704 -8.1963,-14.37605 -6.024,-6.07338 -13.599,-9.2405 -22.1012,-9.2405 -6.4768,0 -11.6534,1.56339 -17.245,5.20815 -9.0765,5.91637 -14.6292,16.88594 -13.9552,27.56915 0.492,7.80047 3.3711,14.37208 8.7741,20.02726 4.4915,4.70126 10.0893,7.75797 16.73,9.13557 3.094,0.64182 10.0717,0.42071 13.2111,-0.41864 z m -0.23,-186.82816 c 13.629,-0.70372 29.1332,-4.88366 42.0461,-11.33559 19.8074,-9.89677 36.3817,-25.60067 47.2492,-44.76807 13.8192,-24.3733 17.864,-53.3986 11.2535,-80.7545 -2.8885,-11.9534 -8.0562,-23.8032 -15.0691,-34.5541 -23.7163,-36.3577 -66.6546,-55.5511 -109.5697,-48.9776 -43.6195,6.6814 -79.714,39.2975 -90.5532,81.8267 -2.638,10.3507 -3.441,16.8415 -3.4517,27.8998 -0.01,8.8147 0.2584,12.0979 1.5746,19.3749 7.6811,42.4655 38.8464,76.4776 80.3752,87.71706 9.6281,2.60582 22.5172,4.22924 30.5651,3.8498 1.1935,-0.0563 3.7045,-0.18156 5.58,-0.2784 z m -12.633,-35.94096 c -25.1047,-3.1778 -46.7304,-18.4753 -58.0469,-41.0609 -3.7094,-7.4032 -5.9183,-14.5309 -7.1655,-23.1216 -0.7402,-5.0979 -0.7427,-15.6411 -0.01,-20.7698 2.9389,-20.4329 13.6567,-38.4051 30.1817,-50.611 10.1527,-7.499 23.778,-12.726 36.632,-14.0529 4.8992,-0.5057 15.8616,-0.1794 20.3367,0.6054 9.6136,1.686 19.1137,5.2934 27.3231,10.3752 4.4307,2.7426 5.5968,4.4373 4.7231,6.8639 -0.4692,1.303 -16.0719,23.7463 -17.7326,25.507 -1.4805,1.5696 -2.8955,1.4293 -5.9814,-0.5931 -13.1349,-8.6085 -29.0377,-8.9102 -41.4342,-0.7861 -14.3626,9.4126 -20.562,28.7741 -14.7805,46.162 4.1892,12.5988 14.4902,21.8929 27.2676,24.6021 3.6484,0.7735 10.9632,0.7859 14.5699,0.025 5.2461,-1.1073 9.824,-3.0259 14.3675,-6.0216 2.6901,-1.7736 4.1115,-2.1696 5.3988,-1.5039 1.0923,0.5649 18.3538,25.2567 18.7853,26.8716 0.5894,2.2058 -0.3324,3.6711 -3.6479,5.7988 -8.7727,5.6299 -18.4366,9.3965 -28.9204,11.272 -4.7163,0.8437 -16.7614,1.0851 -21.8712,0.4383 z m -217.6956,-178.2261 c 14.7166,-4.3347 24.0519,-17.8674 22.7295,-32.9495 -1.1337,-12.9306 -10.4454,-23.942 -23.1947,-27.4287 -2.3038,-0.63 -3.3163,-0.7187 -8.0598,-0.7061 -5.0043,0.013 -5.6413,0.08 -8.2149,0.8637 -5.4834,1.6691 -9.6914,4.1457 -13.4965,7.9433 -4.4294,4.4208 -7.480499,10.0433 -8.731399,16.0901 -0.5015,2.4245 -0.5885,3.7639 -0.4656,7.1667 0.2238,6.1961 1.5524,10.514 4.816899,15.6549 4.5074,7.0982 11.6402,12.0433 20.0858,13.9253 1.5586,0.3473 3.4209,0.4463 6.9357,0.3684 4.0889,-0.091 5.2207,-0.2288 7.595,-0.9281 z m 462.82716,-0.01 c 10.82784,-3.2218 18.89066,-11.4651 21.86491,-22.3544 1.01253,-3.7069 1.17504,-9.8984 0.36292,-13.8244 -1.25363,-6.0601 -4.31768,-11.701 -8.73875,-16.0877 -3.86128,-3.8313 -7.9669,-6.2416 -13.55602,-7.9584 -2.50486,-0.7695 -3.15769,-0.8376 -8.14801,-0.851 -4.74349,-0.013 -5.75595,0.076 -8.0598,0.7061 -12.7257,3.4802 -22.01982,14.4292 -23.22278,27.3577 -1.17514,12.6292 5.34208,24.5608 16.71267,30.5969 4.95349,2.6296 8.86644,3.4932 15.1899,3.3524 4.11068,-0.092 5.20812,-0.227 7.59496,-0.9372 z m -477.86216,315.5166 c -7.4165,-0.87273 -10.9273,-1.55269 -16.1199,-3.12198 -25.230799,-7.62533 -44.974699,-27.43094 -52.646599,-52.81133 -3.5518,-11.75022 -4.1595,-26.57383 -1.5842,-38.64231 4.1194,-19.3039 14.4544,-35.39168 30.3405,-47.22908 23.248699,-17.3236 55.111499,-20.1744 81.394999,-7.2826 12.4715,6.1172 23.1106,15.4131 30.7038,26.8273 7.1256,10.71124 11.2451,21.91882 12.8757,35.02975 0.539,4.33385 0.4601,13.99074 -0.152,18.59989 -2.3613,17.78209 -9.9374,33.29154 -22.3434,45.74082 -11.9147,11.95615 -26.9083,19.55793 -44.024,22.32024 -2.9657,0.47863 -15.8389,0.87598 -18.4449,0.5693 z m 12.4153,-47.72684 c 13.7133,-2.60135 24.142,-14.05569 25.3509,-27.84425 1.1477,-13.09003 -5.672,-25.15645 -17.4613,-30.89506 -9.2924,-4.5232 -19.4259,-4.33224 -28.3648,0.53456 -7.7743,4.23269 -13.146,11.09208 -15.573999,19.88697 -0.5403,1.95726 -0.6607,3.28673 -0.6789,7.49432 -0.019,4.42464 0.075,5.4706 0.6953,7.74995 3.241099,11.90653 12.914799,20.97113 24.653399,23.10121 3.1001,0.56256 8.3351,0.54979 11.3794,-0.0276 z m 450.25695,47.73294 c -0.5115,-0.0704 -2.60398,-0.35126 -4.64997,-0.62419 -8.8161,-1.17598 -19.22197,-4.66093 -26.93663,-9.02112 -21.97498,-12.41976 -36.40963,-33.8473 -39.73938,-58.99115 -0.61598,-4.65136 -0.69157,-13.92712 -0.15158,-18.59989 1.69706,-14.68585 7.47369,-28.67065 16.64636,-40.29975 2.69011,-3.4105 9.45482,-10.1293 12.86202,-12.7746 11.476,-8.9101 24.39013,-14.2974 38.8692,-16.2148 4.94266,-0.6545 14.27732,-0.6584 19.52988,-0.01 36.68458,4.542 64.93979,33.4854 68.6808,70.35343 0.46981,4.63013 0.21477,15.28415 -0.4682,19.55867 -2.20959,13.82937 -7.97846,26.93433 -16.52726,37.5446 -10.78704,13.38822 -26.14675,23.13431 -42.69539,27.09113 -6.38941,1.52774 -9.67572,1.90924 -17.3599,2.01533 -3.92148,0.0541 -7.54845,0.0408 -8.05995,-0.0295 z m 12.2818,-47.7006 c 9.88644,-1.72763 18.32704,-8.25198 22.73296,-17.57191 2.29842,-4.86186 2.80876,-7.298 2.78296,-13.28389 -0.0184,-4.20762 -0.13858,-5.53706 -0.67892,-7.49434 -2.77163,-10.03995 -9.66016,-17.82827 -19.02342,-21.50819 -8.21388,-3.2282 -16.82228,-2.85273 -24.91534,1.08668 -11.73936,5.71428 -18.61425,17.81023 -17.48436,30.76275 1.01895,11.68063 8.82594,22.11638 19.72071,26.36095 5.13077,1.99892 11.36887,2.60847 16.86544,1.64795 z M 352.72577,229.30481 c -10.8129,-1.2869 -18.3606,-3.392 -26.9699,-7.522 -7.8698,-3.7753 -13.9837,-8.0519 -20.405,-14.2733 -13.9764,-13.5411 -21.8868,-30.1804 -23.8061,-50.0757 -0.4201,-4.3544 -0.1877,-12.7762 0.479,-17.3599 2.4167,-16.6149 9.7931,-31.8291 21.0995,-43.518096 15.1488,-15.6617 35.082,-24.2165 56.4256,-24.2165 11.0031,0 20.191,1.7204 29.9952,5.6163 13.7665,5.4706 26.4668,15.5884 35.0167,27.896496 15.0685,21.692 18.3029,49.0817 8.7256,73.8911 -4.754,12.3149 -13.6373,24.3515 -24.141,32.71 -11.4135,9.0825 -25.0249,14.7732 -39.6797,16.5892 -3.3524,0.4154 -14.0457,0.583 -16.7399,0.2624 z m 15.794,-48.2854 c 5.4445,-1.6363 9.8637,-4.3301 13.8457,-8.44 3.9788,-4.1065 6.4814,-8.5296 7.9536,-14.0571 0.6745,-2.5324 0.7853,-3.6048 0.7853,-7.5985 0,-3.9937 -0.1108,-5.0661 -0.7853,-7.5985 -1.5477,-5.8107 -4.3917,-10.6488 -8.6618,-14.7349 -4.1469,-3.9681 -8.5544,-6.4886 -13.8966,-7.947 -2.2599,-0.617 -3.3633,-0.7194 -7.75,-0.7194 -4.3867,0 -5.4901,0.1024 -7.7499,0.7194 -5.3423,1.4584 -9.7498,3.9789 -13.8967,7.947 -4.2722,4.0882 -7.1184,8.9312 -8.6593,14.7349 -1.0861,4.0908 -1.1472,10.6148 -0.1373,14.6686 0.9512,3.8181 2.3545,7.023 4.4303,10.1181 4.6821,6.9808 11.5002,11.6202 19.848,13.5054 1.4124,0.319 3.4017,0.4168 6.9399,0.3414 4.2993,-0.092 5.3295,-0.2167 7.7341,-0.9394 z"
       id="path4161"
       inkscape:connector-curvature="0" />
  </g>
</svg>
